<svg xmlns="http://www.w3.org/2000/svg" width="40" height="40" viewBox="0 0 40 40">
    <!-- Background -->
    <rect width="40" height="40" rx="5" fill="#2B2B2B" />

    <!-- Code with error -->
    <g transform="translate(5, 5)">
        <!-- Code lines -->
        <rect x="0" y="0" width="16" height="2" fill="#A9B7C6" />
        <rect x="2" y="4" width="14" height="2" fill="#A9B7C6" />
        <rect x="0" y="8" width="12" height="2" fill="#A9B7C6" />

        <!-- Error line (red) -->
        <rect x="0" y="12" width="18" height="2" fill="#FF5252" />
        <path d="M18 11L20 13M20 11L18 13" stroke="#FF5252" stroke-width="1.5" />

        <rect x="2" y="16" width="12" height="2" fill="#A9B7C6" />
        <rect x="0" y="20" width="15" height="2" fill="#A9B7C6" />
    </g>

    <!-- Grabbing hand -->
    <g transform="translate(22, 8)">
        <!-- Thumb -->
        <path d="M2,15 C2,15 0,12 0,10 C0,8 1,7 2,7 C3,7 4,8 4,9 L4,12" fill="#FFC107" />

        <!-- Index finger -->
        <path d="M4,12 L4,5 C4,4 5,3 6,3 C7,3 8,4 8,5 L8,11" fill="#FFC107" />

        <!-- Middle finger -->
        <path d="M8,11 L8,4 C8,3 9,2 10,2 C11,2 12,3 12,4 L12,10" fill="#FFC107" />

        <!-- Ring finger -->
        <path d="M12,10 L12,5 C12,4 13,3 14,3 C15,3 16,4 16,5 L16,11" fill="#FFC107" />

        <!-- Pinky -->
        <path d="M16,11 L16,7 C16,6 17,5 18,5 C19,5 20,6 20,7 L19,13" fill="#FFC107" />

        <!-- Palm -->
        <path d="M4,12 C4,12 4,18 4,20 C4,22 7,25 12,25 C17,25 20,22 20,20 L20,13 L16,11 L12,10 L8,11 Z" fill="#FFC107" />

        <!-- Hand outline -->
        <path d="M2,15 C2,15 0,12 0,10 C0,8 1,7 2,7 C3,7 4,8 4,9 L4,12 M4,12 C4,12 4,18 4,20 C4,22 7,25 12,25 C17,25 20,22 20,20 L20,13 M4,12 L4,5 C4,4 5,3 6,3 C7,3 8,4 8,5 L8,11 M8,11 L8,4 C8,3 9,2 10,2 C11,2 12,3 12,4 L12,10 M12,10 L12,5 C12,4 13,3 14,3 C15,3 16,4 16,5 L16,11 M16,11 L16,7 C16,6 17,5 18,5 C19,5 20,6 20,7 L19,13 M16,11 L12,10 L8,11" stroke="#E65100" stroke-width="0.75" fill="none" />
    </g>
</svg>
